HIERARCHY
ROOT Hips
{
	OFFSET 93.006660 91.503891 151.257904
	CHANNELS 6 Xposition Yposition Zposition Zrotation Yrotation Xrotation 
	JOINT LeftUpLeg
	{
		OFFSET 0.103458 1.857829 10.548508
		CHANNELS 3 Zrotation Yrotation Xrotation
		JOINT LeftLeg
		{
			OFFSET 43.499996 -0.000038 0.000006
			CHANNELS 3 Zrotation Yrotation Xrotation
			JOINT LeftFoot
			{
				OFFSET 42.372200 0.000008 -0.000002
				CHANNELS 3 Zrotation Yrotation Xrotation
				JOINT LeftToe
				{
					OFFSET 17.299995 -0.000002 0.000004
					CHANNELS 3 Zrotation Yrotation Xrotation
					End Site
					{
						OFFSET 0.000000 0.000000 0.000000
					}
				}
			}
		}
	}
	JOINT RightUpLeg
	{
		OFFSET 0.103455 1.857822 -10.548502
		CHANNELS 3 Zrotation Yrotation Xrotation
		JOINT RightLeg
		{
			OFFSET 43.500038 -0.000023 0.000006
			CHANNELS 3 Zrotation Yrotation Xrotation
			JOINT RightFoot
			{
				OFFSET 42.372261 0.000000 0.000010
				CHANNELS 3 Zrotation Yrotation Xrotation
				JOINT RightToe
				{
					OFFSET 17.299995 -0.000005 0.000002
					CHANNELS 3 Zrotation Yrotation Xrotation
					End Site
					{
						OFFSET 0.000000 0.000000 0.000000
					}
				}
			}
		}
	}
	JOINT Spine
	{
		OFFSET 6.901965 -2.603733 -0.000004
		CHANNELS 3 Zrotation Yrotation Xrotation
		JOINT Spine1
		{
			OFFSET 12.588106 0.000003 0.000000
			CHANNELS 3 Zrotation Yrotation Xrotation
			JOINT Spine2
			{
				OFFSET 12.343201 0.000003 0.000003
				CHANNELS 3 Zrotation Yrotation Xrotation
				JOINT Neck
				{
					OFFSET 25.832893 -0.000008 0.000002
					CHANNELS 3 Zrotation Yrotation Xrotation
					JOINT Head
					{
						OFFSET 11.766605 0.000004 0.000000
						CHANNELS 3 Zrotation Yrotation Xrotation
						End Site
						{
							OFFSET 0.000000 0.000000 0.000000
						}
					}
				}
				JOINT LeftShoulder
				{
					OFFSET 19.745905 -1.480375 6.000105
					CHANNELS 3 Zrotation Yrotation Xrotation
					JOINT LeftArm
					{
						OFFSET 11.284126 -0.000015 -0.000029
						CHANNELS 3 Zrotation Yrotation Xrotation
						JOINT LeftForeArm
						{
							OFFSET 33.000050 0.000007 0.000040
							CHANNELS 3 Zrotation Yrotation Xrotation
							JOINT LeftHand
							{
								OFFSET 25.200010 0.000008 0.000004
								CHANNELS 3 Zrotation Yrotation Xrotation
								End Site
								{
									OFFSET 0.000000 0.000000 0.000000
								}
							}
						}
					}
				}
				JOINT RightShoulder
				{
					OFFSET 19.746092 -1.480381 -6.000073
					CHANNELS 3 Zrotation Yrotation Xrotation
					JOINT RightArm
					{
						OFFSET 11.284138 -0.000024 -0.000021
						CHANNELS 3 Zrotation Yrotation Xrotation
						JOINT RightForeArm
						{
							OFFSET 33.000099 0.000014 0.000014
							CHANNELS 3 Zrotation Yrotation Xrotation
							JOINT RightHand
							{
								OFFSET 25.199772 0.000145 0.000419
								CHANNELS 3 Zrotation Yrotation Xrotation
								End Site
								{
									OFFSET 0.000000 0.000000 0.000000
								}
							}
						}
					}
				}
			}
		}
	}
}
MOTION
Frames: 8
Frame Time: 0.033333
198.080399 86.124496 176.126907 90.334484 -0.327619 77.877018 169.365455 0.978811 163.154655 -67.564805 2.955801 -4.191154 32.993502 -8.691408 -15.543357 21.454560 0.003094 -0.000003 149.289303 -4.925411 -168.094521 -41.474599 -3.159166 6.365356 85.411242 -5.039482 -3.048779 21.454557 -0.003101 -0.000015 8.127295 2.485020 -2.004620 6.161802 5.072675 -3.878247 5.843142 5.049305 -3.908808 30.097994 5.418900 15.297450 -9.190445 -26.999326 23.935365 66.658063 -85.150869 111.947996 -16.342230 62.091351 34.568827 -59.955851 -18.651140 2.346445 10.386424 2.349183 22.194131 -154.183584 81.402686 27.693226 -40.340706 -58.536634 29.546678 -101.518194 0.510122 -2.898092 -18.051082 29.577410 -8.658393 
197.495193 83.001556 178.657303 89.614889 -0.532081 77.679386 171.263974 0.490805 165.629437 -69.760779 2.337461 -0.943296 34.591374 -11.201663 -15.933581 21.454551 0.003096 0.000003 146.753868 -5.608400 -166.039904 -50.649620 -4.414114 7.145288 94.195474 -5.293660 -3.867344 21.454557 -0.003108 -0.000017 8.368896 2.522445 -1.633596 6.661552 5.134309 -3.122680 6.342578 5.115503 -3.153658 32.359319 4.975637 15.679773 -7.522424 -27.085359 23.915819 74.357619 -85.517035 104.265911 -8.866981 61.949105 35.475227 -65.765282 -17.878058 2.519815 7.707374 2.588669 19.825341 -165.749075 79.019988 15.977853 -33.241595 -59.051186 26.517173 -100.158099 0.093880 -2.808369 -18.115589 37.251773 -6.563604 
196.879303 81.543549 181.182098 87.511628 0.498414 76.747503 175.092733 -1.705403 165.867893 -69.257756 2.446665 2.014966 33.553895 -13.145335 -15.157568 21.454560 0.003093 0.000002 148.149153 -5.671901 -161.587686 -54.884979 -5.034792 4.974184 97.846899 -3.654979 -3.830630 21.454558 -0.003102 -0.000016 9.019891 2.833284 -1.094675 7.986905 5.735088 -1.993660 7.667285 5.723075 -2.028342 32.870886 4.068938 15.943796 -7.524189 -27.205417 24.307060 86.586957 -87.155106 91.944441 -5.011542 65.313923 32.646416 -65.783997 -16.315201 2.411984 4.967972 2.372753 8.172625 -179.719694 74.881672 1.679505 -24.787093 -55.076279 19.771456 -94.534736 0.935418 -2.615229 -17.490060 43.420612 -6.894804 
196.346893 80.925713 183.905396 87.589820 0.413416 77.069396 176.534244 -2.224703 165.920758 -69.558285 3.019685 3.745082 35.732978 -13.882031 -14.888269 21.454553 0.003094 -0.000003 149.363273 -3.226710 -157.998244 -57.567054 -4.895377 2.701281 101.188208 -2.022142 -4.103089 21.454560 -0.003112 -0.000017 8.790505 2.605589 -0.827445 7.541927 5.259305 -1.485021 7.222488 5.250384 -1.516814 33.241025 4.056496 16.324273 -6.344904 -26.509339 24.200952 93.042435 -87.902766 85.432156 2.958868 69.639625 39.183361 -61.692434 -17.595600 2.340061 3.378288 -2.732573 -7.352262 173.467598 74.551528 -5.306328 -20.495183 -55.178315 12.829949 -84.527013 3.625576 -2.357718 -7.001924 36.238679 -4.324380 
195.352402 81.421127 186.303802 87.033884 0.056493 79.510499 176.717484 -5.001406 166.663091 -71.564933 2.398252 3.045509 40.507335 -11.357454 -13.377484 21.454543 0.003087 -0.000001 152.151070 -2.332299 -156.306939 -56.354194 -3.233305 2.109652 102.709099 -1.578978 -3.509159 21.454557 -0.003106 -0.000017 8.350005 2.419919 -0.636075 6.669035 4.872227 -1.132971 6.349754 4.865439 -1.162436 32.859313 4.917337 16.196907 -7.280511 -27.497679 24.510390 105.779597 -88.297619 72.668083 10.109226 70.632564 50.332091 -56.512043 -19.296811 2.262849 4.339131 -10.354568 -15.181581 173.074985 73.401461 -5.744004 -17.338413 -55.307870 3.689315 -77.242801 6.513746 -2.242819 8.746550 21.849049 -0.544333 
194.380005 82.699677 188.523300 86.634461 -0.097008 81.702579 175.404189 -8.485589 165.347241 -75.927989 2.116679 2.004996 51.563816 -6.433575 -9.120371 21.454548 0.003089 0.000005 155.761248 -2.695909 -154.357699 -52.633626 -3.362783 1.478881 102.621413 -1.091756 -2.056719 21.454557 -0.003110 -0.000018 8.070671 2.130564 -0.156475 6.128996 4.266293 -0.200426 5.809920 4.265143 -0.226225 29.627800 3.983165 16.856191 -8.230219 -26.785654 25.332967 172.696074 -89.375361 5.614118 15.622176 69.692341 59.206436 -52.262080 -19.780824 2.145652 5.484705 -16.606584 -4.855200 171.527114 73.636017 -7.323780 -11.373172 -57.669555 -5.632843 -75.633123 6.459155 -2.170686 8.146315 8.401963 -15.647270 
193.567307 84.356323 190.667099 86.752821 -0.039067 83.099913 172.891936 -11.498309 162.815071 -81.793544 2.378547 -1.948108 62.583801 0.057096 -3.174261 21.454558 0.003099 -0.000009 159.519970 -3.494089 -153.356694 -47.957446 -4.321237 0.779431 101.316397 -0.514781 -0.032952 21.454558 -0.003108 -0.000017 7.926787 1.577677 0.534001 5.858580 3.126375 1.147248 5.540036 3.133380 1.128332 26.065856 1.401066 17.578474 -10.691256 -25.887928 26.547644 -108.784334 -88.004918 -73.086193 21.087364 66.763678 62.939688 -49.649277 -18.548079 1.975535 2.535695 -17.446663 4.032107 167.391585 73.215188 -11.578808 -2.540580 -58.305343 -14.008016 -80.331200 5.465183 -2.302724 0.906725 -3.303875 -25.051790 
192.917206 86.445763 192.599106 87.531470 -1.043314 85.534800 166.893774 -13.104293 161.704182 -88.313082 3.438992 -7.986412 67.671452 5.062654 -1.607302 21.454553 0.003093 -0.000004 161.924319 -3.524700 -153.210377 -43.165966 -4.772971 0.223076 98.160890 0.096863 2.664143 21.454558 -0.003119 -0.000018 7.536793 0.842331 1.011510 5.076001 1.639728 2.058957 4.757981 1.652270 2.049030 23.184172 -1.350708 18.537963 -11.704141 -25.488533 27.610591 -104.685367 -86.502625 -77.313008 27.321185 62.145105 63.636470 -48.717110 -18.110836 1.916291 -0.494452 -14.649508 5.448334 163.036001 73.263546 -16.039304 1.908199 -57.778127 -15.716340 -85.226848 3.597602 -2.386591 -4.847960 -12.967089 -12.898950 
